HIERARCHY
ROOT Hips
{
	OFFSET 0.00000 0.00000 0.00000
	CHANNELS 6 Xposition Yposition Zposition Zrotation Yrotation Xrotation 
	JOINT LHipJoint
	{
		OFFSET 0 0 0
		CHANNELS 3 Zrotation Yrotation Xrotation
		JOINT LeftHip
		{
			OFFSET 1.84395 -1.68683 0.74144
			CHANNELS 3 Zrotation Yrotation Xrotation
			JOINT LeftKnee
			{
				OFFSET 2.27037 -6.23779 0.00000
				CHANNELS 3 Zrotation Yrotation Xrotation
				JOINT LeftAnkle
				{
					OFFSET 2.56918 -7.05877 0.00000
					CHANNELS 3 Zrotation Yrotation Xrotation
					JOINT LeftToe
					{
						OFFSET 0.22276 -0.61202 1.71784
						CHANNELS 3 Zrotation Yrotation Xrotation
						End Site
						{
							OFFSET 0.00000 -0.00000 0.91613
						}
					}
				}
			}
		}
	}
	JOINT RHipJoint
	{
		OFFSET 0 0 0
		CHANNELS 3 Zrotation Yrotation Xrotation
		JOINT RightHip
		{
			OFFSET -1.76833 -1.68684 0.74144
			CHANNELS 3 Zrotation Yrotation Xrotation
			JOINT RightKnee
			{
				OFFSET -2.49360 -6.85110 0.00000
				CHANNELS 3 Zrotation Yrotation Xrotation
				JOINT RightAnkle
				{
					OFFSET -2.55538 -7.02085 0.00000
					CHANNELS 3 Zrotation Yrotation Xrotation
					JOINT RightToe
					{
						OFFSET -0.21516 -0.59115 1.68050
						CHANNELS 3 Zrotation Yrotation Xrotation
						End Site
						{
							OFFSET -0.00000 -0.00000 0.89604
						}
					}
				}
			}
		}
	}
	JOINT lowerback
	{
		OFFSET 0 0 0
		CHANNELS 3 Zrotation Yrotation Xrotation
		JOINT Chest
		{
			OFFSET 0.06382 1.72312 -0.19613
			CHANNELS 3 Zrotation Yrotation Xrotation
			JOINT Chest2
			{
				OFFSET -0.00055 1.73507 0.23859
				CHANNELS 3 Zrotation Yrotation Xrotation
				JOINT lowerneck
				{
					OFFSET 0 0 0
					CHANNELS 3 Zrotation Yrotation Xrotation
					JOINT Neck
					{
						OFFSET 0.03638 1.65562 0.09633
						CHANNELS 3 Zrotation Yrotation Xrotation
						JOINT Head
						{
							OFFSET 0.06388 1.62807 -0.32386
							CHANNELS 3 Zrotation Yrotation Xrotation
							End Site
							{
								OFFSET 0.00995 1.67644 -0.12021
							}
						}
					}
				}
				JOINT LeftCollar
				{
					OFFSET 0 0 0
					CHANNELS 3 Zrotation Yrotation Xrotation
					JOINT LeftShoulder
					{
						OFFSET 3.09648 1.42991 0.28122
CHANNELS 3 Zrotation Xrotation Yrotation
						JOINT LeftElbow
						{
OFFSET 0 -5.118780 -0.000000
CHANNELS 3 Zrotation Xrotation Yrotation
							JOINT LeftWrist
							{
OFFSET 0 -3.599710 0.000000
CHANNELS 3 Zrotation Xrotation Yrotation
								JOINT lhand
								{
									OFFSET 0 0 0
CHANNELS 3 Zrotation Xrotation Yrotation
									JOINT LFingers
									{
OFFSET 0 -0.628770 0.000000
CHANNELS 3 Zrotation Xrotation Yrotation
										End Site
										{
OFFSET 0 -0.506930 0.000000
										}
									}
								}
								JOINT LThumb
								{
OFFSET 0 0.000000 0.000000
CHANNELS 3 Zrotation Xrotation Yrotation
									End Site
									{
OFFSET 0 -0.514670 0.514670
									}
								}
							}
						}
					}
				}
				JOINT RightCollar
				{
					OFFSET 0 0 0
					CHANNELS 3 Zrotation Yrotation Xrotation
					JOINT RightShoulder
					{
						OFFSET -3.33565 1.14597 0.05047
CHANNELS 3 Zrotation Xrotation Yrotation
						JOINT RightElbow
						{
OFFSET 0 -5.490200 0.000000
CHANNELS 3 Zrotation Xrotation Yrotation
							JOINT RightWrist
							{
OFFSET 0 -3.206590 -0.000000
CHANNELS 3 Zrotation Xrotation Yrotation
								JOINT rhand
								{
									OFFSET 0 0 0
CHANNELS 3 Zrotation Xrotation Yrotation
									JOINT RFingers
									{
OFFSET 0 -0.691880 0.000000
CHANNELS 3 Zrotation Xrotation Yrotation
										End Site
										{
OFFSET 0 -0.557810 0.000000
										}
									}
								}
								JOINT RThumb
								{
OFFSET 0 0.000000 0.000000
CHANNELS 3 Zrotation Xrotation Yrotation
									End Site
									{
OFFSET 0 -0.566330 0.566330
									}
								}
							}
						}
					}
				}
			}
		}
	}
}
MOTION
Frames: 11
Frame Time: 0.008333333333333333
-0.540765 17.608647 7.946936 -6.720192 -2.853982 7.514928 0.000000 0.000000 0.000000 -19.348677 -32.180290 19.855263 0.026591 -1.052832 -2.894242 -4.581686 36.946867 -29.791398 0.000156 0.074916 0.205885 0.000000 0.000000 0.000000 26.904574 22.082087 7.038963 -0.022844 -0.975031 2.680265 0.231944 -15.212342 -18.968764 -0.002272 -0.307165 0.843880 5.773965 0.874976 2.629429 -0.256864 1.665551 -9.763614 -3.716266 0.242548 -11.841258 -2.100456 -3.512737 -10.014309 7.703828 -6.317846 21.958784 2.286083 -2.390647 8.822066 0.000000 0.000000 0.000000 51.629823 -12.854214 -64.254538 153.263997 -37.923478 110.662413 26.140053 -5.683960 25.558032 0.000000 0.000000 0.000000 -7.125000 0.000000 0.000000 -2.150881 1.952062 -2.076834 0.000000 0.000000 0.000000 -33.986849 -4.880036 58.420140 -151.239665 -39.799544 -109.390341 6.281322 21.318280 24.847104 0.000000 0.000000 0.000000 7.125000 0.000000 0.000000 35.552872 51.170126 -6.059836
-0.536841 17.609691 7.898536 -6.801968 -2.597356 7.433853 0.000000 0.000000 0.000000 -19.249405 -32.473778 19.849360 0.026944 -1.060466 -2.915206 -4.684471 37.112859 -29.478342 0.000000 -0.028959 -0.079469 0.000000 0.000000 0.000000 26.971454 22.085522 6.927857 -0.023472 -0.988339 2.716685 0.268518 -15.457535 -18.914960 -0.002372 -0.315174 0.866120 5.736100 0.778411 2.952855 -0.262059 1.546559 -9.563942 -3.691748 0.192886 -11.821425 -1.998635 -3.500455 -9.652789 7.724605 -6.252728 21.142588 2.281916 -2.380282 8.470752 0.000000 0.000000 0.000000 49.154101 -21.348262 -68.081376 150.394599 -40.543823 108.844484 25.045318 -3.326614 21.445282 0.000000 0.000000 0.000000 -7.125000 0.000000 0.000000 -2.312893 6.556170 -2.035982 0.000000 0.000000 0.000000 -32.327006 -12.232122 62.282094 -146.003790 -44.053384 -105.879793 8.527881 20.473253 26.618405 0.000000 0.000000 0.000000 7.125000 0.000000 0.000000 38.797289 52.230761 -7.889124
-0.529084 17.613538 7.853812 -6.857206 -2.521535 7.471016 0.000000 0.000000 0.000000 -19.157963 -32.741583 19.744273 0.027147 -1.063367 -2.923262 -4.754095 37.271939 -29.441036 0.000000 0.007087 0.019399 0.000000 0.000000 0.000000 26.973080 22.258576 6.794800 -0.022934 -0.977781 2.687668 0.309350 -15.708599 -18.822145 -0.002553 -0.327967 0.901182 5.785865 0.760900 3.257347 -0.305321 1.537848 -9.373687 -3.770920 0.186344 -11.787562 -2.016641 -3.559219 -9.467558 7.742088 -6.259091 20.257973 2.286539 -2.410989 8.140462 0.000000 0.000000 0.000000 46.016642 -29.188774 -70.737388 147.048804 -43.279136 106.606773 25.406711 -0.209173 17.281050 0.000000 0.000000 0.000000 -7.125000 0.000000 0.000000 -1.657383 10.984871 -1.317475 0.000000 0.000000 0.000000 -30.168340 -19.274983 65.255170 -139.031151 -48.582023 -100.821064 10.753499 18.707452 28.131192 0.000000 0.000000 0.000000 7.125000 0.000000 0.000000 41.920594 53.029638 -9.633734
-0.518454 17.618971 7.809564 -6.872675 -2.672913 7.603483 0.000000 0.000000 0.000000 -18.996933 -32.835946 19.429330 0.026965 -1.059443 -2.912372 -4.774532 37.340229 -29.513244 0.000507 0.136435 0.374918 0.000000 0.000000 0.000000 26.874512 22.558217 6.591546 -0.022162 -0.960977 2.641354 0.343598 -15.865385 -18.652284 -0.002496 -0.325350 0.893948 5.908876 0.853206 3.617972 -0.383434 1.686637 -9.205135 -3.951626 0.245179 -11.794433 -2.066499 -3.638527 -9.493739 7.673357 -6.274046 19.409876 2.264925 -2.449482 7.862939 0.000000 0.000000 0.000000 42.482375 -36.152716 -72.412221 143.430848 -45.889286 104.066369 26.374363 3.055364 13.969424 0.000000 0.000000 0.000000 -7.125000 0.000000 0.000000 -0.725057 14.464400 -0.524130 0.000000 0.000000 0.000000 -27.585566 -25.749434 67.607083 -129.975382 -52.948164 -93.791077 11.415936 17.319083 28.874125 0.000000 0.000000 0.000000 7.125000 0.000000 0.000000 43.110101 53.481994 -10.522065
-0.505926 17.624096 7.764614 -6.888557 -3.066446 7.824711 0.000000 0.000000 0.000000 -18.775172 -32.837801 19.006019 0.027079 -1.062486 -2.920677 -4.803410 37.459554 -29.703957 0.002681 0.331105 0.909785 0.000000 0.000000 0.000000 26.719212 22.975952 6.288341 -0.021668 -0.949855 2.610854 0.372174 -15.910277 -18.355638 -0.001457 -0.244772 0.672541 6.149815 1.055356 4.157831 -0.493818 2.009371 -9.109321 -4.265795 0.366773 -11.972268 -2.042560 -3.691148 -9.704351 7.483318 -6.251281 18.685823 2.193520 -2.467234 7.653784 0.000000 0.000000 0.000000 38.846184 -42.168749 -73.567997 139.787597 -48.189336 101.400755 27.166953 5.461407 12.062536 0.000000 0.000000 0.000000 -7.125000 0.000000 0.000000 -0.032301 16.473546 -0.022328 0.000000 0.000000 0.000000 -24.617612 -31.419154 69.632346 -118.922865 -56.556983 -84.754317 10.414317 16.961666 29.247082 0.000000 0.000000 0.000000 7.125000 0.000000 0.000000 42.554558 53.955401 -10.880042
-0.492219 17.628629 7.720875 -6.928178 -3.643078 8.131903 0.000000 0.000000 0.000000 -18.606809 -32.972429 18.686403 0.028374 -1.087709 -2.990052 -4.911723 37.835711 -30.157796 0.008295 0.588663 1.617558 0.000000 0.000000 0.000000 26.548810 23.495811 5.898586 -0.021209 -0.940556 2.585231 0.399777 -15.886319 -17.938102 -0.000117 -0.074964 0.205873 6.504027 1.313202 4.865426 -0.628586 2.435086 -9.066384 -4.698022 0.516925 -12.296344 -1.967354 -3.692956 -10.022997 7.332319 -6.177500 17.964362 2.130954 -2.450292 7.463663 0.000000 0.000000 0.000000 35.463148 -47.295982 -74.361325 136.083754 -50.225152 98.597119 27.874864 6.882506 11.286077 0.000000 0.000000 0.000000 -7.125000 0.000000 0.000000 0.518775 17.258191 0.341439 0.000000 0.000000 0.000000 -21.278488 -36.363551 71.481726 -106.409040 -58.951527 -74.159965 8.870336 17.143811 29.543076 0.000000 0.000000 0.000000 7.125000 0.000000 0.000000 41.448565 54.477458 -11.083437
-0.478080 17.633319 7.677990 -6.926474 -4.279752 8.466340 0.000000 0.000000 0.000000 -18.612621 -33.302875 18.538694 0.030363 -1.125285 -3.093654 -5.094290 38.442158 -30.861260 0.018600 0.877384 2.411531 0.000000 0.000000 0.000000 26.302467 24.020812 5.459769 -0.020822 -0.931825 2.561144 0.418877 -15.786969 -17.483817 -0.000157 0.079137 -0.217510 6.823913 1.550248 5.616011 -0.787162 2.831002 -8.931425 -5.141148 0.657742 -12.536527 -1.774912 -3.670221 -10.511714 7.213966 -6.088637 17.093404 2.059213 -2.415486 7.253880 0.000000 0.000000 0.000000 32.719197 -51.761432 -74.514254 132.041570 -52.130425 95.444955 28.217231 7.799727 10.544621 0.000000 0.000000 0.000000 -7.125000 0.000000 0.000000 0.814658 18.052250 0.522079 0.000000 0.000000 0.000000 -17.731737 -41.200080 73.278740 -93.257151 -59.925561 -62.819024 7.382889 17.386808 29.610243 0.000000 0.000000 0.000000 7.125000 0.000000 0.000000 40.179243 54.816536 -11.005805
-0.464597 17.638872 7.629547 -6.927732 -4.885391 8.785051 0.000000 0.000000 0.000000 -18.635769 -33.725713 18.421088 0.031918 -1.153313 -3.170726 -5.283057 39.075229 -31.660499 0.034455 1.194612 3.284548 0.000000 0.000000 0.000000 26.030160 24.478228 4.951363 -0.021079 -0.938104 2.578617 0.424259 -15.594505 -17.038929 -0.000620 0.155042 -0.426019 7.073824 1.729043 6.395572 -0.924008 3.140767 -8.626683 -5.510791 0.776778 -12.604896 -1.535731 -3.642220 -11.269201 7.167981 -6.009517 16.096646 1.999092 -2.373958 7.054058 0.000000 0.000000 0.000000 30.713096 -55.928218 -73.897388 127.321373 -54.005806 91.668449 27.405612 8.277707 9.366284 0.000000 0.000000 0.000000 -7.125000 0.000000 0.000000 0.321278 19.453415 0.197907 0.000000 0.000000 0.000000 -14.089709 -46.383206 75.222504 -80.313341 -59.595693 -51.624840 6.302333 17.679336 29.475161 0.000000 0.000000 0.000000 7.125000 0.000000 0.000000 39.091508 54.919275 -10.736031
-0.452982 17.646112 7.573065 -6.995150 -5.421237 9.155062 0.000000 0.000000 0.000000 -18.469079 -34.179610 18.147979 0.032500 -1.163511 -3.198768 -5.415009 39.581931 -32.481896 0.060346 1.581486 4.350453 0.000000 0.000000 0.000000 25.804164 24.959769 4.365271 -0.021418 -0.944768 2.596891 0.432646 -15.441892 -16.615044 -0.000882 0.189283 -0.520055 7.300498 1.866664 7.210610 -1.023682 3.396887 -8.216334 -5.820897 0.882350 -12.577868 -1.310831 -3.614786 -12.257515 7.243787 -5.951554 15.042282 1.976520 -2.330674 6.882499 0.000000 0.000000 0.000000 29.219302 -60.064765 -72.745028 121.033476 -56.002748 86.511721 26.351667 8.633091 8.249689 0.000000 0.000000 0.000000 -7.125000 0.000000 0.000000 -0.370697 20.788472 -0.214172 0.000000 0.000000 0.000000 -10.116778 -51.764489 77.422999 -68.054116 -58.049526 -41.124363 5.763426 18.065470 29.258024 0.000000 0.000000 0.000000 7.125000 0.000000 0.000000 38.421168 54.850708 -10.438496
-0.445475 17.657234 7.511749 -7.131441 -5.821106 9.708327 0.000000 0.000000 0.000000 -17.974032 -34.696796 17.540383 0.032645 -1.166072 -3.205894 -5.500130 39.952512 -33.178747 0.092681 1.961947 5.400547 0.000000 0.000000 0.000000 25.627504 25.653287 3.702027 -0.020409 -0.921614 2.533285 0.472122 -15.571115 -16.256611 -0.001389 0.241193 -0.662744 7.520535 1.997152 7.970787 -1.110718 3.641296 -7.793272 -6.111442 0.987768 -12.501504 -1.034044 -3.621435 -13.356576 7.360631 -5.954969 13.896566 1.952377 -2.312634 6.703421 0.000000 0.000000 0.000000 27.630209 -64.341253 -71.663711 112.035772 -58.051496 78.955423 25.862228 9.519005 7.537565 0.000000 0.000000 0.000000 -7.125000 0.000000 0.000000 -0.692479 21.614671 -0.388536 0.000000 0.000000 0.000000 -5.415950 -57.020977 79.879352 -56.627739 -55.300923 -31.560767 5.504544 18.653582 28.901415 0.000000 0.000000 0.000000 7.125000 0.000000 0.000000 37.891378 54.614848 -10.028535
-0.444055 17.674022 7.450377 -7.293263 -5.976996 10.511990 0.000000 0.000000 0.000000 -17.168173 -35.427453 16.583681 0.033215 -1.176057 -3.233413 -5.606193 40.309825 -33.679192 0.120852 2.240869 6.171764 0.000000 0.000000 0.000000 25.420972 26.571996 2.912087 -0.017630 -0.858259 2.358818 0.551157 -16.064240 -16.013218 -0.001885 0.276891 -0.760759 7.683873 2.134050 8.506346 -1.194807 3.867131 -7.333186 -6.349485 1.102742 -12.245612 -0.746521 -3.724703 -14.624533 7.501845 -6.091237 12.612284 1.920068 -2.358704 6.514299 0.000000 0.000000 0.000000 25.140484 -68.899979 -71.389378 99.617698 -59.638351 68.318727 25.263622 10.944163 6.894369 0.000000 0.000000 0.000000 -7.125000 0.000000 0.000000 -1.105448 22.364678 -0.601504 0.000000 0.000000 0.000000 0.311758 -62.068547 82.667532 -46.201479 -51.334479 -23.175929 5.238861 19.833749 28.341941 0.000000 0.000000 0.000000 7.125000 0.000000 0.000000 37.197879 54.214160 -9.414793
